<svg id="Layer_1" data-name="Layer 1" xmlns="http://www.w3.org/2000/svg" width="308" height="228" viewBox="0 0 308 228"><defs><style>.cls-1{fill:#fff;stroke:#6a9c4a;stroke-width:2px;}.cls-1,.cls-2{stroke-miterlimit:10;}.cls-2{fill:none;stroke:#b4d3b4;}.cls-3{fill:#c19696;}</style></defs><title>Artboard 5</title><path class="cls-1" d="M157.37,8.39,275.71,47a15.45,15.45,0,0,1,5.11,2.83l5.38,4.49a39.49,39.49,0,0,1,11.06,14.83l2.45,5.72A15.93,15.93,0,0,1,301,81.18v76.7a13.2,13.2,0,0,1-3.18,8.59l-9.21,10.74a14.15,14.15,0,0,1-6.36,4.26l-124.5,40.7a4.57,4.57,0,0,1-3,0L24.48,174.74a15.94,15.94,0,0,1-8.4-7.08l-3.87-6.77A24.41,24.41,0,0,1,9,148.8V79.17a21.87,21.87,0,0,1,3.31-11.56l6.33-10.12a15,15,0,0,1,7.92-6.24L155.13,8.4A3.57,3.57,0,0,1,157.37,8.39Z"/><path class="cls-2" d="M157.22,20.61,268.49,55.06a14.8,14.8,0,0,1,4.8,2.52l5.06,4a35.63,35.63,0,0,1,10.4,13.23l2.3,5.1a13.6,13.6,0,0,1,1.21,5.6V153.9a11.44,11.44,0,0,1-3,7.66l-8.66,9.58a13.38,13.38,0,0,1-6,3.79l-117,36.3a4.6,4.6,0,0,1-2.82,0L32.29,168.94a14.83,14.83,0,0,1-7.9-6.31l-3.64-6a20.93,20.93,0,0,1-3-10.78V83.72a18.68,18.68,0,0,1,3.11-10.31l5.95-9a13.85,13.85,0,0,1,7.45-5.56L155.12,20.61A3.58,3.58,0,0,1,157.22,20.61Z"/><path class="cls-3" d="M148.62,103.32a16.68,16.68,0,0,1-2.89-.25c-1-.17-2-.39-3-.66s-2-.57-3-.89-2-.64-2.94-.94a17.45,17.45,0,0,1-3.63,1.66,13,13,0,0,1-4,.6,4.83,4.83,0,0,1-2.73-.64,1.94,1.94,0,0,1-.94-1.69,2.33,2.33,0,0,1,1.53-2.13,11.11,11.11,0,0,1,4.66-.75,19.68,19.68,0,0,1,2.75.2c.92.13,1.86.3,2.81.5A23.55,23.55,0,0,0,140,95.61c.83-1,1.65-2.09,2.44-3.25-.6.07-1.21.13-1.83.16s-1.23.06-1.86.06a21.16,21.16,0,0,1-6.16-.83A14.06,14.06,0,0,1,128,89.49a9.9,9.9,0,0,1-2.84-3.38,9.22,9.22,0,0,1-1-4.19,10.46,10.46,0,0,1,1-4.68A9.9,9.9,0,0,1,128,73.8a12.69,12.69,0,0,1,4.16-2.13,17.47,17.47,0,0,1,5.15-.73,17.12,17.12,0,0,1,3.16.26c1,.18,1.78.37,2.47.57a12.07,12.07,0,0,1,1.64.59c.39.19.61.3.66.31l-.57,1a5.27,5.27,0,0,1-.55-.25,10.93,10.93,0,0,0-1.45-.54,20.47,20.47,0,0,0-2.2-.53,14.9,14.9,0,0,0-2.75-.24,13.21,13.21,0,0,0-4.64.76,10.19,10.19,0,0,0-3.48,2.07A9,9,0,0,0,127.38,78a9.41,9.41,0,0,0-.76,3.77,7.9,7.9,0,0,0,1,4,9.62,9.62,0,0,0,2.77,3,13,13,0,0,0,4,1.85,17.77,17.77,0,0,0,4.83.64c.69,0,1.36,0,2-.06s1.33-.12,2-.22c1-1.63,2-3.31,3-5.06s1.94-3.45,2.91-5.12,1.94-3.25,2.92-4.75a28.17,28.17,0,0,1,3.07-3.95,14.45,14.45,0,0,1,3.35-2.69,7.48,7.48,0,0,1,3.78-1,4.13,4.13,0,0,1,1.47.25,3.35,3.35,0,0,1,1.19.77,3.7,3.7,0,0,1,.79,1.31,5.45,5.45,0,0,1,.28,1.85,11,11,0,0,1-.66,3.61,16.51,16.51,0,0,1-1.91,3.8,24.91,24.91,0,0,1-3,3.74,27,27,0,0,1-4.09,3.39,31.62,31.62,0,0,1-5,2.78,29.86,29.86,0,0,1-5.8,1.9c-1,1.33-2,2.59-3,3.77a28.82,28.82,0,0,1-3.25,3.2c1.11.29,2.21.6,3.28.93s2.08.63,3,.9,1.85.5,2.67.68a9.7,9.7,0,0,0,2.17.28,7.33,7.33,0,0,0,5.32-2.2l.9.7-.24.28a6.08,6.08,0,0,1-.66.61,9.73,9.73,0,0,1-1.1.77,9.33,9.33,0,0,1-1.55.76,11.88,11.88,0,0,1-2,.58A12.12,12.12,0,0,1,148.62,103.32ZM129.1,101.7a10.33,10.33,0,0,0,3.08-.45A13.49,13.49,0,0,0,135,100c-1-.27-1.9-.5-2.8-.68a14.05,14.05,0,0,0-2.6-.26,4.23,4.23,0,0,0-2.19.44,1.23,1.23,0,0,0-.69,1,.8.8,0,0,0,.1.38.93.93,0,0,0,.36.39,2.4,2.4,0,0,0,.73.3A4.88,4.88,0,0,0,129.1,101.7Zm33.34-32.06a4.09,4.09,0,0,0-2.44.88,13.18,13.18,0,0,0-2.44,2.38,35.23,35.23,0,0,0-2.5,3.54c-.84,1.35-1.71,2.8-2.6,4.33s-1.82,3.11-2.79,4.73-2,3.23-3,4.79a28.22,28.22,0,0,0,5-1.89,30.42,30.42,0,0,0,4.42-2.61,28.78,28.78,0,0,0,3.67-3.11,23.61,23.61,0,0,0,2.79-3.39,16.74,16.74,0,0,0,1.76-3.44,9.67,9.67,0,0,0,.62-3.27,4.17,4.17,0,0,0-.2-1.37,2.39,2.39,0,0,0-.54-.91,2,2,0,0,0-.79-.51A3,3,0,0,0,162.44,69.64Z"/><path class="cls-3" d="M161.82,95.48a9.57,9.57,0,0,0-.09,1A5,5,0,0,0,162,98a3.72,3.72,0,0,0,.69,1.25,3.17,3.17,0,0,0,1.12.85,3.65,3.65,0,0,0,1.52.3,9.34,9.34,0,0,0,5.56-2,22,22,0,0,0,5.34-6.2l.75.66A26.6,26.6,0,0,1,174,97a17.62,17.62,0,0,1-3,2.69,10.87,10.87,0,0,1-2.91,1.49,8.83,8.83,0,0,1-2.73.46,8,8,0,0,1-2-.26,5.78,5.78,0,0,1-1.94-.88A4.83,4.83,0,0,1,160,98.88a5.22,5.22,0,0,1-.58-2.57,9.2,9.2,0,0,1,.56-3.17,13.21,13.21,0,0,1,1.46-2.85,14,14,0,0,1,2.07-2.4A16.27,16.27,0,0,1,165.83,86a13,13,0,0,1,2.34-1.2,6,6,0,0,1,2-.43,4.06,4.06,0,0,1,1.17.18,3.15,3.15,0,0,1,1.06.55,2.75,2.75,0,0,1,.77,1,3.32,3.32,0,0,1,.3,1.47,4.61,4.61,0,0,1-.54,2.19,7.53,7.53,0,0,1-1.44,1.89,11.27,11.27,0,0,1-2.09,1.56,15.62,15.62,0,0,1-2.48,1.17,19,19,0,0,1-2.61.77A13.54,13.54,0,0,1,161.82,95.48Zm.18-1a11.76,11.76,0,0,0,2.77-.61,13,13,0,0,0,2.37-1.13,12.73,12.73,0,0,0,1.92-1.46,10.31,10.31,0,0,0,1.42-1.61,8.33,8.33,0,0,0,.88-1.56,3.67,3.67,0,0,0,.31-1.34,1.35,1.35,0,0,0-.32-.94,1,1,0,0,0-.76-.35,4.5,4.5,0,0,0-2.18.69A11.51,11.51,0,0,0,166,88.13,17.34,17.34,0,0,0,163.72,91,16.26,16.26,0,0,0,162,94.53Z"/><path class="cls-3" d="M98.72,122.39a17.53,17.53,0,0,0-3,2.83A10.84,10.84,0,0,1,98,127.06a10,10,0,0,1,1.49,2,8.53,8.53,0,0,1,.8,2,8.46,8.46,0,0,1-.57,5.62,8,8,0,0,1-2.15,2.64,8.75,8.75,0,0,1-3,1.57,12.19,12.19,0,0,1-3.57.52,18,18,0,0,1-4.07-.46c-.61,1.3-1.28,2.6-2,3.89a38,38,0,0,1-2.35,3.7,28.22,28.22,0,0,1-2.74,3.3,18.81,18.81,0,0,1-3.19,2.63,15,15,0,0,1-3.68,1.75,13.81,13.81,0,0,1-4.22.64,11.17,11.17,0,0,1-4-.71,8.85,8.85,0,0,1-3.18-2.05,9.31,9.31,0,0,1-2.09-3.3,12.28,12.28,0,0,1-.75-4.45,18,18,0,0,1,1.11-6.26,22.27,22.27,0,0,1,3.06-5.62,25.68,25.68,0,0,1,4.58-4.75,30.46,30.46,0,0,1,5.69-3.65,31.76,31.76,0,0,1,6.39-2.35,27.77,27.77,0,0,1,6.68-.83,22.44,22.44,0,0,1,4.65.43,17.23,17.23,0,0,1,3.59,1.13,19.91,19.91,0,0,1,1.85-1.44,14.1,14.1,0,0,1,2.08-1.2ZM85.05,139.2q1-2.12,2-4.06t2-3.69c.68-1.16,1.39-2.26,2.12-3.27a24.15,24.15,0,0,1,2.37-2.83,14.39,14.39,0,0,0-3.15-.83,23.32,23.32,0,0,0-3.64-.27,21.53,21.53,0,0,0-5.2.64,27.42,27.42,0,0,0-4.92,1.75,29.81,29.81,0,0,0-4.5,2.62,33.52,33.52,0,0,0-4,3.3,34.83,34.83,0,0,0-3.32,3.72,28.53,28.53,0,0,0-2.52,3.93,20.63,20.63,0,0,0-1.61,3.9,13.18,13.18,0,0,0-.56,3.65,8.1,8.1,0,0,0,.62,3.16,7.92,7.92,0,0,0,1.7,2.54,8.07,8.07,0,0,0,2.59,1.69,8.7,8.7,0,0,0,3.31.61,11,11,0,0,0,5-1.1,14.13,14.13,0,0,0,4.11-3.13,28.12,28.12,0,0,0,3.58-4.89q1.7-2.85,3.45-6.37A19.32,19.32,0,0,1,80.28,138l.35-.61c.71.35,1.42.68,2.14,1S84.26,139,85.05,139.2Zm13.18-7.45a6.3,6.3,0,0,0-.84-3.34A6.82,6.82,0,0,0,95,126.1a42.33,42.33,0,0,0-3.81,6c-1.21,2.29-2.46,4.85-3.74,7.66.42.07.85.13,1.27.16s.86.06,1.3.06a8.52,8.52,0,0,0,3.15-.59,7.84,7.84,0,0,0,2.6-1.69,8,8,0,0,0,1.78-2.6A8.39,8.39,0,0,0,98.23,131.75Z"/><path class="cls-3" d="M98,149.48c0,.17,0,.35-.06.53a4.52,4.52,0,0,0,0,.52,4.72,4.72,0,0,0,.23,1.51,3.7,3.7,0,0,0,.68,1.25,3.17,3.17,0,0,0,1.12.85,3.73,3.73,0,0,0,1.53.3,9.34,9.34,0,0,0,5.56-1.95,22.12,22.12,0,0,0,5.33-6.2l.75.66a26.59,26.59,0,0,1-2.94,4.08,18.05,18.05,0,0,1-3,2.69,10.87,10.87,0,0,1-2.91,1.49,8.78,8.78,0,0,1-2.73.46,8.08,8.08,0,0,1-2-.26,5.78,5.78,0,0,1-1.94-.88,4.91,4.91,0,0,1-1.47-1.65,5.12,5.12,0,0,1-.58-2.57,9,9,0,0,1,.56-3.17,12.78,12.78,0,0,1,1.46-2.85,14.34,14.34,0,0,1,2.06-2.4A16.83,16.83,0,0,1,102,140a13,13,0,0,1,2.34-1.2,6.07,6.07,0,0,1,2-.43,4,4,0,0,1,1.16.18,3.2,3.2,0,0,1,1.07.55,2.86,2.86,0,0,1,.77,1,3.47,3.47,0,0,1,.29,1.47,4.61,4.61,0,0,1-.54,2.19,7.3,7.3,0,0,1-1.44,1.89,11.19,11.19,0,0,1-2.08,1.56,15.73,15.73,0,0,1-2.49,1.17,19,19,0,0,1-2.61.77A13.43,13.43,0,0,1,98,149.48Zm.18-.95a11.76,11.76,0,0,0,2.77-.61,13,13,0,0,0,2.37-1.13,12.73,12.73,0,0,0,1.92-1.46,10.31,10.31,0,0,0,1.42-1.61,7.8,7.8,0,0,0,.88-1.56,3.48,3.48,0,0,0,.31-1.34,1.35,1.35,0,0,0-.32-.94,1,1,0,0,0-.76-.35,4.47,4.47,0,0,0-2.17.69,11.55,11.55,0,0,0-2.42,1.91A17.31,17.31,0,0,0,99.94,145,15.85,15.85,0,0,0,98.21,148.53Z"/><path class="cls-3" d="M116.87,136.36c.14-.25.4-.68.78-1.3s.81-1.29,1.31-2,1.06-1.5,1.65-2.25a15.3,15.3,0,0,1,1.75-1.92l1,.59c-.63,1-1.28,2.14-1.94,3.31s-1.31,2.37-2,3.61h7.16l-.44,1.14h-7.32c-.65,1.32-1.27,2.63-1.85,3.94s-1.09,2.55-1.53,3.73a30.13,30.13,0,0,0-1,3.33,11.69,11.69,0,0,0-.38,2.69,2.75,2.75,0,0,0,.66,2.06,2.32,2.32,0,0,0,1.63.62,3.57,3.57,0,0,0,1.76-.51,10.34,10.34,0,0,0,1.77-1.31,18.17,18.17,0,0,0,1.64-1.74c.52-.63,1-1.22,1.39-1.78s.73-1,1-1.46.42-.67.48-.78l.81.62c-.51.85-1.09,1.75-1.73,2.7a20.49,20.49,0,0,1-2.14,2.65,11.86,11.86,0,0,1-2.56,2,5.93,5.93,0,0,1-3,.8,4,4,0,0,1-1.73-.35,3.49,3.49,0,0,1-1.24-1,4.41,4.41,0,0,1-.76-1.48,6.88,6.88,0,0,1-.25-1.87,11.8,11.8,0,0,1,.21-1.87,25.65,25.65,0,0,1,.71-2.86c.34-1.11.79-2.35,1.36-3.73a44,44,0,0,1,2.14-4.44h-3.65l.44-1.14Z"/><path class="cls-3" d="M130.16,139.88c-.19.38-.46.88-.8,1.5s-.72,1.31-1.11,2-.8,1.52-1.21,2.33-.78,1.61-1.11,2.38a20.26,20.26,0,0,0-.8,2.16,6,6,0,0,0-.31,1.72,1.13,1.13,0,0,0,.26.86,1.09,1.09,0,0,0,.75.23,3,3,0,0,0,1.76-.59,9.22,9.22,0,0,0,1.7-1.55,20,20,0,0,0,1.66-2.18l1.63-2.49.79.62c-.43.76-.91,1.57-1.44,2.44a17.82,17.82,0,0,1-1.79,2.4,9.92,9.92,0,0,1-2.18,1.84,4.89,4.89,0,0,1-2.59.72,2.55,2.55,0,0,1-2-.79,3,3,0,0,1-.71-2,7.8,7.8,0,0,1,.69-3.08,19.92,19.92,0,0,1,1.7-3.17,31.25,31.25,0,0,1,2.22-3c.8-1,1.53-1.85,2.21-2.64Zm4.11-4.88a2.24,2.24,0,0,1-.22.91,3.58,3.58,0,0,1-.56.85,3.14,3.14,0,0,1-.76.61,1.68,1.68,0,0,1-.84.24.68.68,0,0,1-.57-.27,1.13,1.13,0,0,1-.19-.67,3.19,3.19,0,0,1,.13-.84,3.84,3.84,0,0,1,.39-.91,3,3,0,0,1,.64-.73,1.28,1.28,0,0,1,.86-.31,1.07,1.07,0,0,1,.79.35A1.09,1.09,0,0,1,134.27,135Z"/><path class="cls-3" d="M137,136.36c.14-.25.4-.68.78-1.3s.81-1.29,1.31-2,1.06-1.5,1.65-2.25a16.1,16.1,0,0,1,1.75-1.92l1,.59c-.63,1-1.28,2.14-1.94,3.31s-1.31,2.37-2,3.61h7.16l-.44,1.14H139c-.66,1.32-1.28,2.63-1.86,3.94s-1.09,2.55-1.53,3.73a30.13,30.13,0,0,0-1,3.33,11.61,11.61,0,0,0-.37,2.69,2.79,2.79,0,0,0,.65,2.06,2.32,2.32,0,0,0,1.63.62,3.57,3.57,0,0,0,1.76-.51,10.34,10.34,0,0,0,1.77-1.31,17.08,17.08,0,0,0,1.65-1.74c.52-.63,1-1.22,1.38-1.78s.74-1,1-1.46.42-.67.48-.78l.82.62q-.78,1.28-1.74,2.7a19.68,19.68,0,0,1-2.14,2.65,11.86,11.86,0,0,1-2.56,2,5.93,5.93,0,0,1-3,.8,4.08,4.08,0,0,1-1.73-.35,3.49,3.49,0,0,1-1.24-1,4.41,4.41,0,0,1-.76-1.48,6.88,6.88,0,0,1-.25-1.87,11.8,11.8,0,0,1,.21-1.87,23.86,23.86,0,0,1,.72-2.86,39.07,39.07,0,0,1,1.35-3.73,44,44,0,0,1,2.14-4.44h-3.65l.44-1.14Z"/><path class="cls-3" d="M194.69,122.89l-.67.85c-.21.27-.42.55-.62.84a11.54,11.54,0,0,1,3.58,2,10,10,0,0,1,2.11,2.51,8.86,8.86,0,0,1,1,2.57,12,12,0,0,1,.25,2.19,7.09,7.09,0,0,1-.43,2.47,8.44,8.44,0,0,1-1.14,2.14,8.26,8.26,0,0,1-1.66,1.68,7.43,7.43,0,0,1-2,1.09,11.74,11.74,0,0,1,3.18,3.91,10,10,0,0,1,1,4.35,8.15,8.15,0,0,1-.76,3.49,9.23,9.23,0,0,1-2.05,2.88,10,10,0,0,1-3.07,2,9.88,9.88,0,0,1-3.77.72,8.7,8.7,0,0,1-3.19-.56,9.09,9.09,0,0,1-2.62-1.52,10.26,10.26,0,0,1-2-2.29,12.68,12.68,0,0,1-1.33-2.81l1.1-.33a7.86,7.86,0,0,0,2.68,4.07,7.18,7.18,0,0,0,4.51,1.44A8.24,8.24,0,0,0,192,156a8.35,8.35,0,0,0,2.6-1.65,7.69,7.69,0,0,0,1.78-2.46,7.47,7.47,0,0,0,.35-5.2,9.21,9.21,0,0,0-.81-1.91,12.41,12.41,0,0,0-1.13-1.66,13.92,13.92,0,0,0-1.29-1.35c-.39.08-.79.13-1.18.18s-.79.06-1.17.06a11.11,11.11,0,0,1-1.61-.12,7.85,7.85,0,0,1-1.5-.36,3.1,3.1,0,0,1-1.1-.64,1.27,1.27,0,0,1-.43-1,2,2,0,0,1,.07-.39,1.26,1.26,0,0,1,.27-.49,1.74,1.74,0,0,1,.63-.43,2.76,2.76,0,0,1,1.14-.19,5.91,5.91,0,0,1,1.38.16,8.51,8.51,0,0,1,1.33.4q.63.26,1.23.57c.39.22.75.43,1.07.65a8.2,8.2,0,0,0,1.6-.95,7.66,7.66,0,0,0,1.46-1.49,7.55,7.55,0,0,0,1.49-4.59,7.72,7.72,0,0,0-1.38-4.5,8.62,8.62,0,0,0-4.11-3.06c-.88,1.23-1.7,2.46-2.46,3.67s-1.47,2.43-2.13,3.65-1.28,2.43-1.86,3.65-1.13,2.44-1.66,3.69a68.19,68.19,0,0,1-3.56,7.28,22.55,22.55,0,0,1-3.7,4.94,12.76,12.76,0,0,1-4.29,2.8,14.76,14.76,0,0,1-5.3.89,9.64,9.64,0,0,1-4-.76A7.57,7.57,0,0,1,161,153.3a8.92,8.92,0,0,1-1.59-3.06,13.29,13.29,0,0,1-.52-3.73,15.8,15.8,0,0,1,.71-4.54,20.78,20.78,0,0,1,2.09-4.66,25,25,0,0,1,2.17-3.07,30.81,30.81,0,0,1,3-3.14,31.35,31.35,0,0,1,3.72-2.95,27.87,27.87,0,0,1,4.44-2.44,29.58,29.58,0,0,1,5.1-1.67,25.78,25.78,0,0,1,5.72-.62,26.68,26.68,0,0,1,3.37.19,20.36,20.36,0,0,1,2.83.53l1-1,1.07-1ZM186,132a42.64,42.64,0,0,1,2.43-3.64,39.94,39.94,0,0,1,2.71-3.28,15.5,15.5,0,0,0-1.77-.31,17.59,17.59,0,0,0-2-.11,24.11,24.11,0,0,0-6.53.91,28.62,28.62,0,0,0-6.13,2.54,29.73,29.73,0,0,0-5.4,3.87,27.3,27.3,0,0,0-4.29,4.87,23.24,23.24,0,0,0-2.84,5.54,17.92,17.92,0,0,0-1,5.94,8.56,8.56,0,0,0,.41,2.71,5.52,5.52,0,0,0,1.22,2.09,5.46,5.46,0,0,0,2,1.34,7.51,7.51,0,0,0,2.75.47,10.09,10.09,0,0,0,4.57-1,11.65,11.65,0,0,0,3.49-2.67,21,21,0,0,0,2.75-3.94q1.24-2.25,2.41-4.8c.78-1.7,1.59-3.45,2.41-5.25A51.6,51.6,0,0,1,186,132Zm6.15,8.59a4.72,4.72,0,0,0-.78-.45,6.12,6.12,0,0,0-.93-.35,9.05,9.05,0,0,0-1-.23,4.63,4.63,0,0,0-.84-.09,1.41,1.41,0,0,0-.78.14c-.11.1-.16.18-.16.26s.1.25.3.35a3.64,3.64,0,0,0,.74.27,6.84,6.84,0,0,0,1,.19,10.11,10.11,0,0,0,1.08.07l.55,0A5.31,5.31,0,0,0,192.1,140.6Z"/><path class="cls-3" d="M209.83,139.88c-.19.38-.46.88-.8,1.5l-1.11,2c-.4.75-.8,1.52-1.21,2.33s-.78,1.61-1.11,2.38a20.26,20.26,0,0,0-.8,2.16,6,6,0,0,0-.31,1.72,1.09,1.09,0,0,0,.27.86,1,1,0,0,0,.74.23,3,3,0,0,0,1.76-.59A9.22,9.22,0,0,0,209,151a18.83,18.83,0,0,0,1.66-2.18c.54-.82,1.09-1.65,1.63-2.49l.79.62c-.43.76-.91,1.57-1.44,2.44a17,17,0,0,1-1.79,2.4,9.69,9.69,0,0,1-2.18,1.84,4.89,4.89,0,0,1-2.59.72,2.55,2.55,0,0,1-2-.79,3,3,0,0,1-.7-2,7.78,7.78,0,0,1,.68-3.08,19.92,19.92,0,0,1,1.7-3.17,31.25,31.25,0,0,1,2.22-3c.8-1,1.53-1.85,2.21-2.64Zm4.11-4.88a2.09,2.09,0,0,1-.22.91,3.3,3.3,0,0,1-.56.85,3.14,3.14,0,0,1-.76.61,1.65,1.65,0,0,1-.83.24.66.66,0,0,1-.57-.27,1.07,1.07,0,0,1-.2-.67,3.19,3.19,0,0,1,.13-.84,3.5,3.5,0,0,1,.4-.91,2.77,2.77,0,0,1,.63-.73,1.3,1.3,0,0,1,.86-.31,1.05,1.05,0,0,1,.79.35A1.09,1.09,0,0,1,213.94,135Z"/><path class="cls-3" d="M219,137.67a3.73,3.73,0,0,0-.34.53,3.18,3.18,0,0,0-.29.69,3.25,3.25,0,0,0-.12.94,4.84,4.84,0,0,0,.23,1.25c.15.53.32,1.14.49,1.82s.34,1.42.5,2.22a13.35,13.35,0,0,1,.23,2.47,9.76,9.76,0,0,1-.51,3.29,7.62,7.62,0,0,1-1.34,2.44,13.45,13.45,0,0,0,3.37-2.64,27.67,27.67,0,0,0,3.31-4.39l.75.66a31.18,31.18,0,0,1-2.14,3.09,19.61,19.61,0,0,1-2.63,2.75,13.24,13.24,0,0,1-3.07,2,8.23,8.23,0,0,1-3.5.76,4.79,4.79,0,0,1-2.78-.78,3.37,3.37,0,0,1-1.39-2.34l.79-.15a1.41,1.41,0,0,0,.12.43,2.14,2.14,0,0,0,.38.58,2.35,2.35,0,0,0,.72.5,2.47,2.47,0,0,0,1.11.22,3,3,0,0,0,1.56-.4,4.13,4.13,0,0,0,1.18-1.07,6.45,6.45,0,0,0,.86-1.5,10.8,10.8,0,0,0,.56-1.75,14.4,14.4,0,0,0,.3-1.76,15,15,0,0,0,.09-1.56q0-.7-.06-1.56c0-.57-.08-1.12-.12-1.64s-.08-1-.12-1.36-.06-.64-.06-.76v0a8.23,8.23,0,0,0-.68.9l-.84,1.3c-.3.47-.6.94-.9,1.43l-.82,1.31-.59,1a4.38,4.38,0,0,0-.23.41l-.79-.62s.2-.33.55-.94.81-1.4,1.39-2.34,1.24-2,2-3.14,1.49-2.27,2.26-3.36l.88.73A5.1,5.1,0,0,1,219,137.67Z"/><path class="cls-3" d="M229,136.36l.78-1.3q.57-.92,1.32-2t1.65-2.25a15.3,15.3,0,0,1,1.75-1.92l1,.59c-.63,1-1.28,2.14-1.94,3.31s-1.31,2.37-1.95,3.61h7.16l-.44,1.14H231c-.66,1.32-1.28,2.63-1.85,3.94s-1.09,2.55-1.53,3.73a30.13,30.13,0,0,0-1,3.33,11.69,11.69,0,0,0-.38,2.69,2.75,2.75,0,0,0,.66,2.06,2.3,2.3,0,0,0,1.63.62,3.57,3.57,0,0,0,1.76-.51,9.91,9.91,0,0,0,1.76-1.31,17.08,17.08,0,0,0,1.65-1.74c.52-.63,1-1.22,1.39-1.78s.73-1,1-1.46.42-.67.48-.78l.81.62c-.51.85-1.09,1.75-1.73,2.7a19.75,19.75,0,0,1-2.15,2.65,11.57,11.57,0,0,1-2.55,2,5.93,5.93,0,0,1-3,.8,4,4,0,0,1-1.73-.35,3.49,3.49,0,0,1-1.24-1,4.24,4.24,0,0,1-.76-1.48,6.51,6.51,0,0,1-.25-1.87,11.8,11.8,0,0,1,.21-1.87,25.65,25.65,0,0,1,.71-2.86c.34-1.11.79-2.35,1.35-3.73a46.5,46.5,0,0,1,2.15-4.44h-3.65l.44-1.14Z"/><path class="cls-3" d="M250.42,146.91c-.22.32-.48.76-.78,1.3s-.65,1.15-1,1.79-.83,1.28-1.31,1.94a11.64,11.64,0,0,1-1.56,1.78,7.93,7.93,0,0,1-1.83,1.3,4.65,4.65,0,0,1-2.11.5,3.4,3.4,0,0,1-1.16-.19,2.47,2.47,0,0,1-1-.58,2.73,2.73,0,0,1-.66-1,3.53,3.53,0,0,1-.24-1.37,6.44,6.44,0,0,1,.43-2.25,17,17,0,0,1,1-2.27c.38-.74.76-1.41,1.14-2a13.41,13.41,0,0,0,.83-1.46,2.19,2.19,0,0,0,.27-.94.8.8,0,0,0-.19-.51,3.22,3.22,0,0,0-.46-.43l-.57-.44a1.92,1.92,0,0,1-.5-.56c-.36.59-.74,1.18-1.12,1.78s-.7,1.09-1.1,1.73l-1.14,1.88-.79-.62,4.7-7.36.64.33-.14.42a1.74,1.74,0,0,0-.1.61,1.31,1.31,0,0,0,.08.48,1,1,0,0,0,.31.43c.59.52,1.05.93,1.39,1.21a9,9,0,0,1,.73.69,1.2,1.2,0,0,1,.29.41,1.34,1.34,0,0,1,.05.43,2.71,2.71,0,0,1-.08.64,6.72,6.72,0,0,1-.3.9c-.14.35-.33.77-.57,1.24s-.55,1-.91,1.66l-.65,1.15c-.21.39-.4.78-.57,1.18a7.62,7.62,0,0,0-.41,1.19,4.58,4.58,0,0,0-.15,1.14,1.58,1.58,0,0,0,.12.67.86.86,0,0,0,.32.38,1.09,1.09,0,0,0,.43.18,2.28,2.28,0,0,0,.45,0,2.7,2.7,0,0,0,1.43-.43,7,7,0,0,0,1.41-1.11,13.71,13.71,0,0,0,1.34-1.54c.43-.58.85-1.17,1.24-1.77s.76-1.18,1.1-1.73l.9-1.44Z"/><path class="cls-3" d="M262,148.51a.55.55,0,0,0,.18,0h.2a4.87,4.87,0,0,0,1.12-.12,3.19,3.19,0,0,0,.93-.38,4.34,4.34,0,0,0,.83-.69,7.15,7.15,0,0,0,.77-1.05l.79.62a6.73,6.73,0,0,1-2.18,2.09,5.07,5.07,0,0,1-2.37.59,3.23,3.23,0,0,1-.81-.09,14.66,14.66,0,0,1-2,2.69,11.48,11.48,0,0,1-2.19,1.81,9.17,9.17,0,0,1-2.22,1,7.55,7.55,0,0,1-2,.32,4.61,4.61,0,0,1-1.79-.35,3.87,3.87,0,0,1-1.41-1,4.51,4.51,0,0,1-.93-1.52,5.59,5.59,0,0,1-.33-2,7.73,7.73,0,0,1,.35-2.24,13.32,13.32,0,0,1,1-2.26,15.54,15.54,0,0,1,1.42-2.17,18,18,0,0,1,1.76-1.94,19.58,19.58,0,0,1,1.95-1.63,12.88,12.88,0,0,1,2-1.18l.71.92a16.51,16.51,0,0,0-2.37,2.11,20,20,0,0,0-2.17,2.79,17.34,17.34,0,0,0-1.61,3.15,9,9,0,0,0-.62,3.18,3.31,3.31,0,0,0,.61,2.14,2.26,2.26,0,0,0,1.87.76,4.78,4.78,0,0,0,1.91-.4,8.51,8.51,0,0,0,1.85-1.07,12.42,12.42,0,0,0,1.73-1.62,21,21,0,0,0,1.59-2,3.79,3.79,0,0,1-1.12-1,5.8,5.8,0,0,1-.82-1.42,8.65,8.65,0,0,1-.49-1.73,10.71,10.71,0,0,1-.17-1.89,6.35,6.35,0,0,1,.25-1.82,5.21,5.21,0,0,1,.67-1.51,3.36,3.36,0,0,1,1-1,2.21,2.21,0,0,1,1.25-.37,2,2,0,0,1,1.1.31,2.75,2.75,0,0,1,.81.88,4.54,4.54,0,0,1,.5,1.33,7.32,7.32,0,0,1,.18,1.65,11.17,11.17,0,0,1-.11,1.45,12.79,12.79,0,0,1-.32,1.59c-.14.54-.31,1.07-.5,1.59A7.22,7.22,0,0,1,262,148.51ZM259,143a8.52,8.52,0,0,0,.11,1.38,8,8,0,0,0,.35,1.46,6.45,6.45,0,0,0,.61,1.3,3.05,3.05,0,0,0,.93,1,13.46,13.46,0,0,0,.67-1.57c.18-.54.33-1,.46-1.55a12,12,0,0,0,.26-1.4,10.11,10.11,0,0,0,.08-1.13,6.47,6.47,0,0,0-.11-1.21,4.43,4.43,0,0,0-.3-.95,1.76,1.76,0,0,0-.46-.64.92.92,0,0,0-.6-.23,1.28,1.28,0,0,0-.82.3,2.3,2.3,0,0,0-.63.79,4.14,4.14,0,0,0-.41,1.14A6,6,0,0,0,259,143Z"/></svg>