<svg id="Layer_1" data-name="Layer 1" xmlns="http://www.w3.org/2000/svg" width="355" height="430" viewBox="0 0 355 430"><defs><style>.cls-1{fill:#97d29f;opacity:0.45;}.cls-1,.cls-2,.cls-3,.cls-4,.cls-5{stroke:#6a9c4a;stroke-miterlimit:10;}.cls-1,.cls-3{stroke-width:3px;}.cls-2,.cls-3,.cls-4,.cls-5{fill:none;}.cls-2{stroke-width:2px;}.cls-5{stroke-width:0.5px;}</style></defs><title>Artboard 3</title><path class="cls-1" d="M18.56,1.5h317l3.25,10.87a7.66,7.66,0,0,0,5,5.25l9.69,2.88v391l-8.68,2.76a7.89,7.89,0,0,0-5.08,5.55l-2.4,8.69H18.56l-2.77-7.71a12.68,12.68,0,0,0-9.59-8.48l-4.7-.81V21.5l7.84-2.73A12.44,12.44,0,0,0,17.21,9Z"/><path class="cls-2" d="M26.19,8.75H327l3.09,10.47a7.31,7.31,0,0,0,4.76,5.06L344,27.05V403.63l-8.24,2.66a7.58,7.58,0,0,0-4.82,5.34L328.66,420H26.19l-2.63-7.42a12.11,12.11,0,0,0-9.1-8.18L10,403.63V28l7.44-2.63A11.94,11.94,0,0,0,24.9,16Z"/><path class="cls-3" d="M18.56,1.5h317l3.25,10.87a7.66,7.66,0,0,0,5,5.25l9.69,2.88v391l-8.68,2.76a7.89,7.89,0,0,0-5.08,5.55l-2.4,8.69H18.56l-2.77-7.71a12.68,12.68,0,0,0-9.59-8.48l-4.7-.81V21.5l7.84-2.73A12.44,12.44,0,0,0,17.21,9Z"/><path class="cls-4" d="M78.65,123.09H276.92l1.42,6.14a5.09,5.09,0,0,0,1.38,2.49l.94.94a5.14,5.14,0,0,0,3.65,1.51H288l-.58,29.3h-3.69a5.18,5.18,0,0,0-3.64,1.5l-.94.93a5.16,5.16,0,0,0-1.38,2.46l-1.41,6.07H78.52"/><path class="cls-4" d="M79,174.43l-1.41-6.14a5.26,5.26,0,0,0-1.38-2.49l-1-.94a5.14,5.14,0,0,0-3.65-1.51H67.89l.58-29.3h3.69a5.16,5.16,0,0,0,3.64-1.5l.94-.93a5.16,5.16,0,0,0,1.38-2.46l1.41-6.07"/><path class="cls-5" d="M81.86,127.21H273.22l1.37,5.23a4.28,4.28,0,0,0,1.33,2.12l.91.8a5.3,5.3,0,0,0,3.52,1.29h3.57l-.57,24.95H279.8a5.39,5.39,0,0,0-3.52,1.27l-.91.8a4.25,4.25,0,0,0-1.32,2.09l-1.37,5.17H81.74"/><path class="cls-5" d="M82.17,170.93,80.8,165.7a4.28,4.28,0,0,0-1.33-2.12l-.91-.8A5.35,5.35,0,0,0,75,161.49H71.47l.57-25h3.55a5.33,5.33,0,0,0,3.52-1.27l.91-.79a4.23,4.23,0,0,0,1.33-2.1l1.36-5.17"/><path class="cls-4" d="M81.65,200.09H279.92l1.42,6.14a5.09,5.09,0,0,0,1.38,2.49l.94.94a5.14,5.14,0,0,0,3.65,1.51H291l-.58,29.3h-3.69a5.18,5.18,0,0,0-3.64,1.5l-.94.93a5.16,5.16,0,0,0-1.38,2.46l-1.41,6.07H81.52"/><path class="cls-4" d="M82,251.43l-1.41-6.14a5.26,5.26,0,0,0-1.38-2.49l-1-.94a5.14,5.14,0,0,0-3.65-1.51H70.89l.58-29.3h3.69a5.16,5.16,0,0,0,3.64-1.5l.94-.93a5.16,5.16,0,0,0,1.38-2.46l1.41-6.07"/><path class="cls-5" d="M84.86,204.21H276.22l1.37,5.23a4.28,4.28,0,0,0,1.33,2.12l.91.8a5.3,5.3,0,0,0,3.52,1.29h3.57l-.57,24.95H282.8a5.39,5.39,0,0,0-3.52,1.27l-.91.8a4.25,4.25,0,0,0-1.32,2.09l-1.37,5.17H84.74"/><path class="cls-5" d="M85.17,247.93,83.8,242.7a4.28,4.28,0,0,0-1.33-2.12l-.91-.8A5.35,5.35,0,0,0,78,238.49H74.47l.57-25h3.55a5.33,5.33,0,0,0,3.52-1.27l.91-.79a4.23,4.23,0,0,0,1.33-2.1l1.36-5.17"/><path class="cls-4" d="M72.73,316.84H290.81l1.56,6.76a5.69,5.69,0,0,0,1.52,2.74l1,1a5.68,5.68,0,0,0,4,1.67H303l-.64,32.23H298.3a5.69,5.69,0,0,0-4,1.64l-1,1a5.61,5.61,0,0,0-1.52,2.7l-1.55,6.68H72.58"/><path class="cls-4" d="M73.08,373.32l-1.56-6.75A5.61,5.61,0,0,0,70,363.83l-1-1a5.71,5.71,0,0,0-4-1.66H60.89l.64-32.23h4.06a5.69,5.69,0,0,0,4-1.64l1-1a5.58,5.58,0,0,0,1.51-2.71l1.56-6.68"/><path class="cls-5" d="M76.26,321.38H286.74l1.51,5.75a4.73,4.73,0,0,0,1.46,2.34l1,.88a5.91,5.91,0,0,0,3.88,1.41h3.92l-.62,27.45H294a5.87,5.87,0,0,0-3.87,1.4l-1,.87a4.65,4.65,0,0,0-1.46,2.31l-1.5,5.68h-210"/><path class="cls-5" d="M76.6,369.47l-1.5-5.75a4.76,4.76,0,0,0-1.47-2.33l-1-.88a5.86,5.86,0,0,0-3.88-1.42H64.83l.62-27.44h3.92a5.9,5.9,0,0,0,3.86-1.4l1-.88a4.59,4.59,0,0,0,1.46-2.3l1.5-5.69"/></svg>