<svg id="Layer_1" data-name="Layer 1" xmlns="http://www.w3.org/2000/svg" width="375" height="455" viewBox="0 0 375 455"><defs><style>.cls-1{fill:#97d29f;opacity:0.45;}.cls-1,.cls-2,.cls-3,.cls-4,.cls-5{stroke:#114511;stroke-miterlimit:10;}.cls-1,.cls-3{stroke-width:3px;}.cls-2,.cls-3,.cls-4,.cls-5{fill:none;}.cls-2{stroke-width:2px;}.cls-5{stroke-width:0.5px;}</style></defs><title>Artboard 3</title><path class="cls-1" d="M27.56,10.5h317l3.25,10.87a7.66,7.66,0,0,0,5,5.25l9.69,2.88v391l-8.68,2.76a7.89,7.89,0,0,0-5.08,5.55l-2.4,8.69H27.56l-2.77-7.71a12.68,12.68,0,0,0-9.59-8.48l-4.7-.81V30.5l7.84-2.73A12.44,12.44,0,0,0,26.21,18Z"/><path class="cls-2" d="M35.19,17.75H336l3.09,10.47a7.31,7.31,0,0,0,4.76,5.06L353,36.05V412.63l-8.24,2.66a7.58,7.58,0,0,0-4.82,5.34L337.66,429H35.19l-2.63-7.42a12.11,12.11,0,0,0-9.1-8.18L19,412.63V37l7.44-2.63A11.94,11.94,0,0,0,33.9,25Z"/><path class="cls-3" d="M27.56,10.5h317l3.25,10.87a7.66,7.66,0,0,0,5,5.25l9.69,2.88v391l-8.68,2.76a7.89,7.89,0,0,0-5.08,5.55l-2.4,8.69H27.56l-2.77-7.71a12.68,12.68,0,0,0-9.59-8.48l-4.7-.81V30.5l7.84-2.73A12.44,12.44,0,0,0,26.21,18Z"/><path class="cls-4" d="M87.65,132.09H285.92l1.42,6.14a5.09,5.09,0,0,0,1.38,2.49l.94.94a5.14,5.14,0,0,0,3.65,1.51H297l-.58,29.3h-3.69a5.18,5.18,0,0,0-3.64,1.5l-.94.93a5.16,5.16,0,0,0-1.38,2.46l-1.41,6.07H87.52"/><path class="cls-4" d="M88,183.43l-1.41-6.14a5.26,5.26,0,0,0-1.38-2.49l-1-.94a5.14,5.14,0,0,0-3.65-1.51H76.89l.58-29.3h3.69a5.16,5.16,0,0,0,3.64-1.5l.94-.93a5.16,5.16,0,0,0,1.38-2.46l1.41-6.07"/><path class="cls-5" d="M90.86,136.21H282.22l1.37,5.23a4.28,4.28,0,0,0,1.33,2.12l.91.8a5.3,5.3,0,0,0,3.52,1.29h3.57l-.57,24.95H288.8a5.39,5.39,0,0,0-3.52,1.27l-.91.8a4.25,4.25,0,0,0-1.32,2.09l-1.37,5.17H90.74"/><path class="cls-5" d="M91.17,179.93,89.8,174.7a4.28,4.28,0,0,0-1.33-2.12l-.91-.8A5.35,5.35,0,0,0,84,170.49H80.47l.57-25h3.55a5.33,5.33,0,0,0,3.52-1.27l.91-.79a4.23,4.23,0,0,0,1.33-2.1l1.36-5.17"/><path class="cls-4" d="M90.65,209.09H288.92l1.42,6.14a5.09,5.09,0,0,0,1.38,2.49l.94.94a5.14,5.14,0,0,0,3.65,1.51H300l-.58,29.3h-3.69a5.18,5.18,0,0,0-3.64,1.5l-.94.93a5.16,5.16,0,0,0-1.38,2.46l-1.41,6.07H90.52"/><path class="cls-4" d="M91,260.43l-1.41-6.14a5.26,5.26,0,0,0-1.38-2.49l-1-.94a5.14,5.14,0,0,0-3.65-1.51H79.89l.58-29.3h3.69a5.16,5.16,0,0,0,3.64-1.5l.94-.93a5.16,5.16,0,0,0,1.38-2.46l1.41-6.07"/><path class="cls-5" d="M93.86,213.21H285.22l1.37,5.23a4.28,4.28,0,0,0,1.33,2.12l.91.8a5.3,5.3,0,0,0,3.52,1.29h3.57l-.57,24.95H291.8a5.39,5.39,0,0,0-3.52,1.27l-.91.8a4.25,4.25,0,0,0-1.32,2.09l-1.37,5.17H93.74"/><path class="cls-5" d="M94.17,256.93,92.8,251.7a4.28,4.28,0,0,0-1.33-2.12l-.91-.8A5.35,5.35,0,0,0,87,247.49H83.47l.57-25h3.55a5.33,5.33,0,0,0,3.52-1.27l.91-.79a4.23,4.23,0,0,0,1.33-2.1l1.36-5.17"/><path class="cls-4" d="M81.73,325.84H299.81l1.56,6.76a5.69,5.69,0,0,0,1.52,2.74l1,1a5.68,5.68,0,0,0,4,1.67H312l-.64,32.23H307.3a5.69,5.69,0,0,0-4,1.64l-1,1a5.61,5.61,0,0,0-1.52,2.7l-1.55,6.68H81.58"/><path class="cls-4" d="M82.08,382.32l-1.56-6.75A5.61,5.61,0,0,0,79,372.83l-1-1a5.71,5.71,0,0,0-4-1.66H69.89l.64-32.23h4.06a5.69,5.69,0,0,0,4-1.64l1-1a5.58,5.58,0,0,0,1.51-2.71l1.56-6.68"/><path class="cls-5" d="M85.26,330.38H295.74l1.51,5.75a4.73,4.73,0,0,0,1.46,2.34l1,.88a5.91,5.91,0,0,0,3.88,1.41h3.92l-.62,27.45H303a5.87,5.87,0,0,0-3.87,1.4l-1,.87a4.65,4.65,0,0,0-1.46,2.31l-1.5,5.68h-210"/><path class="cls-5" d="M85.6,378.47l-1.5-5.75a4.76,4.76,0,0,0-1.47-2.33l-1-.88a5.86,5.86,0,0,0-3.88-1.42H73.83l.62-27.44h3.92a5.9,5.9,0,0,0,3.86-1.4l1-.88a4.59,4.59,0,0,0,1.46-2.3l1.5-5.69"/></svg>