<svg id="Layer_1" data-name="Layer 1" xmlns="http://www.w3.org/2000/svg" width="195" height="51" viewBox="0 0 195 51"><defs><style>.cls-1,.cls-2{fill:none;stroke:#114511;stroke-miterlimit:10;}.cls-2{stroke-width:0.5px;}</style></defs><title>box</title><path class="cls-1" d="M13.11,2H183l1.21,5.26A4.53,4.53,0,0,0,185.4,9.4l.81.8a4.41,4.41,0,0,0,3.12,1.3h3.17L192,36.61h-3.16a4.44,4.44,0,0,0-3.12,1.28l-.8.8a4.27,4.27,0,0,0-1.18,2.11L182.53,46H13"/><path class="cls-1" d="M13.39,46l-1.22-5.26A4.37,4.37,0,0,0,11,38.6l-.81-.8a4.42,4.42,0,0,0-3.13-1.3H3.89l.5-25.11H7.55a4.44,4.44,0,0,0,3.12-1.28l.8-.8A4.27,4.27,0,0,0,12.65,7.2L13.87,2"/><path class="cls-2" d="M15.86,5.53h164L181,10a3.66,3.66,0,0,0,1.14,1.81l.78.69a4.54,4.54,0,0,0,3,1.1H189L188.52,35h-3.05a4.58,4.58,0,0,0-3,1.09l-.78.68a3.7,3.7,0,0,0-1.14,1.8L179.37,43H15.75"/><path class="cls-2" d="M16.13,43,15,38.52a3.66,3.66,0,0,0-1.15-1.82L13,36a4.63,4.63,0,0,0-3-1.1H7l.48-21.38h3.05a4.6,4.6,0,0,0,3-1.09l.77-.68A3.56,3.56,0,0,0,15.42,10l1.17-4.44"/></svg>
