<svg id="Layer_1" data-name="Layer 1" xmlns="http://www.w3.org/2000/svg" width="159" height="146" viewBox="0 0 159 146"><defs><style>.cls-1{fill:none;stroke:#114511;stroke-miterlimit:10;stroke-width:2px;}.cls-2{fill:#eaeaea;}.cls-3{font-size:13.05px;fill:#c19696;font-family:Parisienne-Regular, Parisienne;}.cls-4{letter-spacing:-0.02em;}.cls-5{letter-spacing:0em;}.cls-6{letter-spacing:-0.02em;}.cls-7{letter-spacing:0.02em;}.cls-8{fill:#e6e6e6;}</style></defs><title>logofransk</title><path class="cls-1" d="M82,40.65l47.42,15.48a6.24,6.24,0,0,1,2,1.13l2.15,1.8A15.84,15.84,0,0,1,138,65l1,2.29a6.46,6.46,0,0,1,.52,2.52v30.73a5.3,5.3,0,0,1-1.27,3.45l-3.69,4.3A5.77,5.77,0,0,1,132,110L82.1,126.3a1.83,1.83,0,0,1-1.2,0l-52.2-19a6.38,6.38,0,0,1-3.36-2.84l-1.55-2.71a9.66,9.66,0,0,1-1.29-4.84V69a8.69,8.69,0,0,1,1.33-4.63l2.53-4.06a6,6,0,0,1,3.18-2.5L81.05,40.65A1.39,1.39,0,0,1,82,40.65Z"/><path class="cls-2" d="M81.89,45.54l44.58,13.81a5.94,5.94,0,0,1,1.93,1l2,1.6a14.28,14.28,0,0,1,4.16,5.3l.92,2a5.49,5.49,0,0,1,.49,2.25V99a4.55,4.55,0,0,1-1.2,3.07l-3.47,3.84a5.37,5.37,0,0,1-2.39,1.52L82,121.92a1.82,1.82,0,0,1-1.13,0L31.83,105a6,6,0,0,1-3.16-2.53L27.21,100A8.41,8.41,0,0,1,26,95.71V70.83a7.47,7.47,0,0,1,1.25-4.13l2.38-3.62a5.55,5.55,0,0,1,3-2.22L81.05,45.54A1.5,1.5,0,0,1,81.89,45.54Z"/><text class="cls-3" transform="translate(42.05 89.17)"><tspan class="cls-4">L</tspan><tspan class="cls-5" x="10.57" y="0">e </tspan><tspan class="cls-6" x="19.04" y="0">P</tspan><tspan class="cls-5" x="30.23" y="0">etit </tspan><tspan class="cls-7" x="48.04" y="0">B</tspan><tspan x="61.47" y="0">istro</tspan></text><path class="cls-8" d="M59,70.36a1.5,1.5,0,0,0,0-3,1.5,1.5,0,0,0,0,3Z"/></svg>
