<svg id="Layer_1" data-name="Layer 1" xmlns="http://www.w3.org/2000/svg" width="159" height="146" viewBox="0 0 159 146"><defs><style>.cls-1,.cls-2{fill:none;stroke-miterlimit:10;}.cls-1{stroke:#114511;stroke-width:2px;}.cls-2{stroke:#96c196;}.cls-3,.cls-4,.cls-5,.cls-6,.cls-7{isolation:isolate;}.cls-4,.cls-5,.cls-6,.cls-7{font-size:13.05px;fill:#c19696;font-family:Parisienne-Regular, Parisienne;}.cls-4{letter-spacing:-0.02em;}.cls-6{letter-spacing:-0.02em;}.cls-7{letter-spacing:0.02em;}</style></defs><title>logofinal</title><path class="cls-1" d="M82,40.65l47.42,15.48a6.19,6.19,0,0,1,2,1.13l2.15,1.8A15.84,15.84,0,0,1,138,65l1,2.29a6.42,6.42,0,0,1,.52,2.52v30.73a5.32,5.32,0,0,1-1.27,3.45l-3.69,4.3A5.8,5.8,0,0,1,132,110L82.1,126.3a1.89,1.89,0,0,1-1.2,0l-52.2-19a6.38,6.38,0,0,1-3.36-2.84l-1.55-2.71a9.66,9.66,0,0,1-1.29-4.84V69a8.72,8.72,0,0,1,1.33-4.63l2.53-4.06a6,6,0,0,1,3.18-2.5L81.05,40.65A1.41,1.41,0,0,1,82,40.65Z"/><path class="cls-2" d="M81.89,45.54l44.58,13.81a5.92,5.92,0,0,1,1.93,1l2,1.6a14.26,14.26,0,0,1,4.16,5.3l.92,2A5.46,5.46,0,0,1,136,71.5V99a4.54,4.54,0,0,1-1.2,3.07l-3.47,3.84a5.36,5.36,0,0,1-2.39,1.52L82,121.92a1.82,1.82,0,0,1-1.13,0L31.83,105a6,6,0,0,1-3.16-2.53L27.21,100A8.45,8.45,0,0,1,26,95.71V70.83a7.48,7.48,0,0,1,1.25-4.13l2.38-3.62a5.54,5.54,0,0,1,3-2.22L81.05,45.54A1.5,1.5,0,0,1,81.89,45.54Z"/><g class="cls-3"><text class="cls-4" transform="translate(42.05 89.17)">L</text><text class="cls-5" transform="translate(52.62 89.17)">e </text><text class="cls-6" transform="translate(61.09 89.17)">P</text><text class="cls-5" transform="translate(72.28 89.17)">etit </text><text class="cls-7" transform="translate(90.09 89.17)">B</text><text class="cls-5" transform="translate(103.52 89.17)">istro</text></g></svg>
