<?xml version="1.0" encoding="utf-8"?>
<!-- Generator: Adobe Illustrator 23.0.2, SVG Export Plug-In . SVG Version: 6.00 Build 0)  -->
<svg version="1.1" id="Layer_1" xmlns="http://www.w3.org/2000/svg" xmlns:xlink="http://www.w3.org/1999/xlink" x="0px" y="0px"
	 viewBox="0 0 609.5 541.6" style="enable-background:new 0 0 609.5 541.6;" xml:space="preserve">
<style type="text/css">
	.st0{fill:none;stroke:#114511;stroke-width:2;stroke-miterlimit:10;}
	.st1{fill:none;stroke:#96C196;stroke-miterlimit:10;}
</style>
<title>logofransk</title>
<path class="st0" d="M-233,7.2l47.4,15.5c0.7,0.2,1.4,0.6,2,1.1l2.1,1.8c1.9,1.6,3.4,3.6,4.4,5.9l1,2.3c0.3,0.8,0.5,1.7,0.5,2.5
	v30.7c0,1.3-0.4,2.5-1.3,3.4l-3.7,4.3c-0.7,0.8-1.6,1.4-2.6,1.7l-49.9,16.3c-0.4,0.1-0.8,0.1-1.2,0l-52.2-19
	c-1.4-0.5-2.6-1.5-3.4-2.8l-1.6-2.7c-0.8-1.5-1.3-3.1-1.3-4.8V35.6c0-1.6,0.5-3.2,1.3-4.6l2.5-4.1c0.7-1.2,1.9-2.1,3.2-2.5
	l51.5-17.2C-233.6,7.1-233.3,7.1-233,7.2z"/>
<path class="st1" d="M-233.1,12.1l44.6,13.8c0.7,0.2,1.4,0.6,1.9,1l2,1.6c1.8,1.4,3.2,3.2,4.2,5.3l0.9,2c0.3,0.7,0.5,1.5,0.5,2.2
	v27.5c0,1.1-0.4,2.2-1.2,3.1l-3.5,3.8c-0.6,0.7-1.5,1.2-2.4,1.5L-233,88.5c-0.4,0.1-0.8,0.1-1.1,0l-49-16.9
	c-1.3-0.5-2.4-1.3-3.2-2.5l-1.5-2.5c-0.8-1.3-1.2-2.8-1.2-4.3V37.4c0-1.5,0.4-2.9,1.2-4.1l2.4-3.6c0.7-1.1,1.8-1.8,3-2.2l48.4-15.3
	C-233.7,12.1-233.4,12.1-233.1,12.1z"/>
<text transform="matrix(1 0 0 1 -272.9448 55.767)" style="fill:#C19696; font-family:'Parisienne-Regular'; font-size:13.05px;">L</text>
<text transform="matrix(1 0 0 1 -262.3748 55.767)" style="fill:#C19696; font-family:'Parisienne-Regular'; font-size:13.05px;">e </text>
<text transform="matrix(1 0 0 1 -253.9048 55.767)" style="fill:#C19696; font-family:'Parisienne-Regular'; font-size:13.05px;">P</text>
<text transform="matrix(1 0 0 1 -242.7148 55.767)" style="fill:#C19696; font-family:'Parisienne-Regular'; font-size:13.05px;">etit </text>
<text transform="matrix(1 0 0 1 -224.9048 55.767)" style="fill:#C19696; font-family:'Parisienne-Regular'; font-size:13.05px;">B</text>
<text transform="matrix(1 0 0 1 -211.4747 55.767)" style="fill:#C19696; font-family:'Parisienne-Regular'; font-size:13.05px;">istro</text>
<g id="LqWlyi.tif">

		<image style="overflow:visible;" width="249" height="301" id="Layer_0" xlink:href="99582E7057CB3EDD.png"  transform="matrix(1.4867 0 0 1.4867 127.7244 55.767)">
	</image>
</g>
</svg>
