<svg id="Layer_1" data-name="Layer 1" xmlns="http://www.w3.org/2000/svg" width="66" height="22" viewBox="0 0 66 22"><defs><style>.cls-1{fill:#626262;}</style></defs><title>underlinje1</title><path class="cls-1" d="M16.1,11.84c.17-.19-1.33-2.08-3.79-2.68a8.07,8.07,0,0,0-3.44,0,9,9,0,0,0-3.45,1.19A7.85,7.85,0,0,0,3,12.73a11.81,11.81,0,0,0-.81,1.43A3.38,3.38,0,0,0,2,16.3a3.59,3.59,0,0,0,1.24,1.76,7.46,7.46,0,0,0,2.2,1.22l.41.14a14,14,0,0,0,5.79.15,48.43,48.43,0,0,0,9-2.67A77.14,77.14,0,0,0,28.15,13a66.1,66.1,0,0,1,6.2-3.57,37.78,37.78,0,0,1,4.48-1.79C44.16,5.76,44,6.27,44,6.18c-.13-.51-5.17,0-10,2.38a32,32,0,0,0-4.13,2.68,32.42,32.42,0,0,1-4.14,2.38,50.64,50.64,0,0,1-5.85,2.68A41.71,41.71,0,0,1,12,19c-2.9.5-4.48.56-5.51.3S3.27,18,2.67,16.9c-.69-1.3.17-3,.34-3.28a8.41,8.41,0,0,1,2.41-2.38C6.24,10.75,9,9,11.62,9.46a13.48,13.48,0,0,1,2.41.89A6.39,6.39,0,0,1,16.1,11.84Z"/><path class="cls-1" d="M59.87,10.87a3.3,3.3,0,0,0-1.33-1.49,8,8,0,0,0-2.29-1l-.41-.12a16.81,16.81,0,0,0-5.91,0,54.75,54.75,0,0,0-9,2.54,79.67,79.67,0,0,0-7.55,3.53c-2.47,1.28-3,2-5.16,2.9-.77.31-1.27.59-4.91,1.81a31.11,31.11,0,0,1-5.77,1.61c.15.44,5.25-.13,10.06-2.31A32.55,32.55,0,0,0,31.7,16a34.47,34.47,0,0,1,4.11-2.16,54.3,54.3,0,0,1,5.85-2.46,46.61,46.61,0,0,1,8-2.52,17.43,17.43,0,0,1,5.59-.4c1.07.21,3.29,1,3.95,2s-.06,2.59-.22,2.84a7.67,7.67,0,0,1-2.36,2.12c-.81.44-3.54,2-6.23,1.7a16.94,16.94,0,0,1-2.49-.71,7.05,7.05,0,0,1-2.16-1.23c-.17.16,1.44,1.76,4,2.21a9.92,9.92,0,0,0,3.5-.08,10.28,10.28,0,0,0,3.46-1.12A7.31,7.31,0,0,0,59,14a7.4,7.4,0,0,0,.76-1.25A2.48,2.48,0,0,0,59.87,10.87Z"/></svg>
